<svg id="Capa_1" enable-background="new 0 0 512 512" height="512" viewBox="0 0 512 512" width="512" xmlns="http://www.w3.org/2000/svg"><g><path d="m512 256c0 61.05-21.37 117.1-57.04 161.1-18.797 23.183-67.488-18.807-93.193-3.358-15.02 9.027-5.119 78.384-21.938 84.208-26.259 9.11-54.469 14.05-83.829 14.05s-57.57-4.94-83.83-14.05c-45.6-15.79-85.35-44.12-115.13-80.85-35.67-44-57.04-100.05-57.04-161.1s21.37-117.1 57.04-161.1c24.76-30.55 56.42-55.28 92.61-71.82 32.39-14.82 68.41-23.08 106.35-23.08s73.96 8.26 106.35 23.08c36.19 16.54 67.85 41.27 92.61 71.82 35.67 44 57.04 100.05 57.04 161.1z" fill="#78c378"/><path d="m454.96 71v346.1c-29.78 36.73-69.53 65.06-115.13 80.85h-234.86c-26.47 0-47.93-21.46-47.93-47.93v-379.02c0-26.47 21.46-47.92 47.93-47.92h302.06c26.47 0 47.93 21.45 47.93 47.92z" fill="#50405a"/><path d="m128.903 497.95h-23.94c-26.47 0-47.92-21.46-47.92-47.93v-379.02c0-26.47 21.45-47.92 47.92-47.92h23.94c-26.46 0-47.92 21.45-47.92 47.92v379.02c0 26.47 21.46 47.93 47.92 47.93z" fill="#362a40"/><g><path d="m434.96 71.01v313.801c0 21.489-17.421 38.91-38.91 38.91h-291.08c-15.425 0-27.93-12.505-27.93-27.93v-324.791c0-15.42 12.5-27.92 27.92-27.92h302.07c15.425 0 27.93 12.505 27.93 27.93z" fill="#e9eeff"/><path d="m138.773 423.721h-33.8c-15.4 0-27.93-12.53-27.93-27.93v-324.791c0-15.4 12.53-27.92 27.93-27.92h33.8c-15.39 0-27.92 12.52-27.92 27.92v324.791c0 15.4 12.53 27.93 27.92 27.93z" fill="#d4daf8"/></g><g fill="#50405a"><path d="m386.017 202.73h-260.034c-6.346 0-11.49-5.144-11.49-11.49 0-6.346 5.144-11.49 11.49-11.49h260.034c6.346 0 11.49 5.144 11.49 11.49.001 6.346-5.144 11.49-11.49 11.49z"/><path d="m386.017 242.683h-260.034c-6.346 0-11.49-5.144-11.49-11.49 0-6.346 5.144-11.49 11.49-11.49h260.034c6.346 0 11.49 5.144 11.49 11.49.001 6.346-5.144 11.49-11.49 11.49z"/><path d="m386.017 282.637h-260.034c-6.346 0-11.49-5.144-11.49-11.49 0-6.346 5.144-11.49 11.49-11.49h260.034c6.346 0 11.49 5.144 11.49 11.49.001 6.345-5.144 11.49-11.49 11.49z"/><path d="m386.017 122.823h-260.034c-6.346 0-11.49-5.144-11.49-11.49 0-6.346 5.144-11.49 11.49-11.49h260.034c6.346 0 11.49 5.144 11.49 11.49.001 6.346-5.144 11.49-11.49 11.49z"/><path d="m302.908 162.777h-176.925c-6.346 0-11.49-5.144-11.49-11.49 0-6.346 5.144-11.49 11.49-11.49h176.925c6.346 0 11.49 5.144 11.49 11.49 0 6.345-5.144 11.49-11.49 11.49z"/><path d="m206.138 325.176h-80.156c-6.346 0-11.49-5.144-11.49-11.49 0-6.346 5.144-11.49 11.49-11.49h80.156c6.346 0 11.49 5.144 11.49 11.49.001 6.346-5.144 11.49-11.49 11.49z"/><path d="m386.017 366.83h-260.034c-6.346 0-11.49-5.144-11.49-11.49 0-6.346 5.144-11.49 11.49-11.49h260.034c6.346 0 11.49 5.144 11.49 11.49.001 6.345-5.144 11.49-11.49 11.49z"/></g><path d="m263.672 410.616 10.106-17.505c3.41-5.906-.852-13.288-7.672-13.288h-20.213c-6.819 0-11.081 7.382-7.672 13.288l10.106 17.505c3.411 5.905 11.935 5.905 15.345 0z" fill="#d4daf8"/><g fill="#362a40"><path d="m197.431 473.6 10.106-17.505c3.41-5.906-.852-13.288-7.672-13.288h-20.213c-6.819 0-11.081 7.382-7.672 13.288l10.106 17.505c3.412 5.905 11.936 5.905 15.345 0z"/><path d="m314.569 447.237-10.106 17.505c-3.41 5.906.852 13.288 7.672 13.288h20.213c6.819 0 11.081-7.382 7.672-13.288l-10.106-17.505c-3.412-5.906-11.936-5.906-15.345 0z"/></g><path d="m248.328 56.185-10.106 17.505c-3.41 5.906.852 13.288 7.672 13.288h20.213c6.819 0 11.081-7.382 7.672-13.288l-10.106-17.505c-3.411-5.905-11.935-5.905-15.345 0z" fill="#d4daf8"/><circle cx="256" cy="460.631" fill="#362a40" r="20.95"/></g></svg>